<svg xmlns="http://www.w3.org/2000/svg" width="32" height="32" viewBox="0 0 32 32">
    <defs>
        <linearGradient id="a" x1="20.897%" x2="84.622%" y1="8.206%" y2="77.815%">
            <stop offset="0%" stop-color="#6A54FF"/>
            <stop offset="100%" stop-color="#473DB5"/>
        </linearGradient>
        <linearGradient id="b" x1="102.118%" x2="20.897%" y1="99.878%" y2="8.206%">
            <stop offset="0%" stop-color="#A59AFF"/>
            <stop offset="100%" stop-color="#D9D5FF"/>
        </linearGradient>
    </defs>
    <g fill="none" fill-rule="evenodd">
        <g fill="url(#a)">
            <path d="M4.73 4.46C6.12 2.839 8.926.199 11.589.008a4.267 4.267 0 0 1 3.44 1.43l7.629 7.712-3.99 4.052-2.666 2.676L4.73 4.46z"/>
            <path d="M4.656 27.14C3.034 25.747.393 22.942.203 20.28a4.267 4.267 0 0 1 1.43-3.44L9.38 9.175l4.016 4.026 2.688 2.666L4.656 27.14z"/>
            <path d="M27.273 27.264c-1.392 1.622-4.197 4.263-6.86 4.453a4.267 4.267 0 0 1-3.44-1.43l-7.665-7.748 4.026-4.015 2.667-2.688 11.272 11.428z"/>
            <path d="M27.321 4.55c1.622 1.39 4.263 4.196 4.453 6.858a4.267 4.267 0 0 1-1.43 3.44l-7.748 7.666-4.015-4.026-2.688-2.667L27.32 4.55z"/>
        </g>
        <g fill="url(#b)" transform="translate(10.242 10.504)">
            <path d="M1.981 1.535C2.45.99 3.392.103 4.288.04c.438-.026.864.151 1.157.48L8.01 3.112 6.668 4.472l-.896.9-3.79-3.837z"/>
            <path d="M9.562 9.197c-.468.545-1.411 1.432-2.307 1.496a1.435 1.435 0 0 1-1.157-.48L3.521 7.61l1.354-1.35.896-.903 3.79 3.84z"/>
            <path d="M9.577 1.563c.545.468 1.432 1.41 1.496 2.306.026.438-.151.864-.48 1.157L7.989 7.603 6.64 6.25l-.903-.897 3.84-3.79z"/>
            <path d="M1.957 9.158C1.412 8.69.525 7.747.461 6.85a1.435 1.435 0 0 1 .48-1.157l2.604-2.577 1.349 1.354.903.896-3.84 3.79z"/>
        </g>
    </g>
</svg>
